<svg xmlns="http://www.w3.org/2000/svg" viewBox="0 0 200.83 27.58"><defs><style>.cls-1{font-size:8px;}.cls-1,.cls-13,.cls-9{fill:#3f565b;}.cls-1,.cls-13{font-family:PresidenciaFina-Italic, Presidencia Fina;font-style:italic;}.cls-2{letter-spacing:-0.01em;}.cls-3{letter-spacing:-0.01em;}.cls-4{letter-spacing:-0.02em;}.cls-5{letter-spacing:-0.01em;}.cls-6{letter-spacing:-0.01em;}.cls-7{letter-spacing:-0.01em;}.cls-8{letter-spacing:-0.02em;}.cls-9{font-size:18.84px;font-family:PresidenciaFina, Presidencia Fina;letter-spacing:-0.01em;}.cls-10{letter-spacing:-0.01em;}.cls-11{letter-spacing:-0.01em;}.cls-12{letter-spacing:0em;}.cls-13{font-size:10px;}.cls-14{letter-spacing:-0.01em;}.cls-15{letter-spacing:-0.01em;}</style></defs><title>Logo</title><g id="Layer_2" data-name="Layer 2"><g id="Layer_1-2" data-name="Layer 1"><text class="cls-1" transform="translate(0 8.04)"><tspan class="cls-2">li</tspan><tspan class="cls-3" x="2.82" y="0">c.</tspan><tspan class="cls-4" x="7.22" y="0"> </tspan><tspan class="cls-5" x="8.75" y="0">p</tspan><tspan class="cls-6" x="12.08" y="0">h</tspan><tspan class="cls-7" x="15.58" y="0">il</tspan><tspan class="cls-3" x="18.4" y="0">.</tspan><tspan class="cls-8" x="19.89" y="0"> </tspan><tspan class="cls-6" x="21.42" y="0">e</tspan><tspan class="cls-7" x="24.47" y="0">id</tspan><tspan class="cls-3" x="29.37" y="0">g.</tspan><tspan class="cls-4" x="34.34" y="0"> </tspan><tspan class="cls-6" x="35.87" y="0">a</tspan><tspan class="cls-2" x="39.36" y="0">n</tspan><tspan class="cls-3" x="42.86" y="0">e</tspan><tspan class="cls-7" x="45.92" y="0">rk</tspan><tspan class="cls-6" x="50.94" y="0">a</tspan><tspan class="cls-7" x="54.43" y="0">nn</tspan><tspan class="cls-6" x="61.44" y="0">t</tspan><tspan x="63.68" y="0">e </tspan></text><text class="cls-1" transform="translate(0 15.04)"><tspan class="cls-3">P</tspan><tspan class="cls-2" x="3.74" y="0">s</tspan><tspan class="cls-6" x="6.35" y="0">y</tspan><tspan class="cls-7" x="9.59" y="0">c</tspan><tspan class="cls-6" x="12.5" y="0">hothe</tspan><tspan class="cls-5" x="28.31" y="0">r</tspan><tspan class="cls-3" x="30.26" y="0">a</tspan><tspan class="cls-2" x="33.75" y="0">p</tspan><tspan class="cls-3" x="37.08" y="0">e</tspan><tspan class="cls-2" x="40.14" y="0">u</tspan><tspan class="cls-6" x="43.64" y="0">t</tspan><tspan class="cls-7" x="45.88" y="0">in</tspan><tspan class="cls-3" x="50.83" y="0" xml:space="preserve"> A</tspan><tspan class="cls-2" x="56.77" y="0">S</tspan><tspan x="60.2" y="0">P</tspan></text><text class="cls-9" transform="translate(68.72 15.03)">C<tspan class="cls-10" x="9.93" y="0">h</tspan><tspan class="cls-11" x="18.18" y="0">risti</tspan><tspan class="cls-10" x="41.16" y="0">ne</tspan><tspan x="56.9" y="0" xml:space="preserve"> St</tspan><tspan class="cls-10" x="74.06" y="0">e</tspan><tspan class="cls-11" x="81.54" y="0">i</tspan><tspan class="cls-10" x="84.98" y="0">ne</tspan><tspan class="cls-12" x="100.72" y="0">r</tspan></text><text class="cls-13" transform="translate(85.37 25.18)"><tspan class="cls-2">S</tspan><tspan class="cls-14" x="4.29" y="0">y</tspan><tspan class="cls-2" x="8.34" y="0">s</tspan><tspan class="cls-15" x="11.6" y="0">tem</tspan><tspan class="cls-2" x="25.05" y="0">is</tspan><tspan class="cls-15" x="30.12" y="0">che </tspan><tspan class="cls-2" x="43.98" y="0">T</tspan><tspan class="cls-14" x="48.88" y="0">herap</tspan><tspan class="cls-2" x="68.06" y="0">i</tspan><tspan class="cls-14" x="69.87" y="0">e </tspan><tspan class="cls-2" x="75.7" y="0">&amp;</tspan><tspan class="cls-14" x="81.95" y="0" xml:space="preserve"> Berat</tspan><tspan class="cls-2" x="102.26" y="0">un</tspan><tspan x="111.02" y="0">g</tspan></text></g></g></svg>