<?xml version="1.0" encoding="utf-8"?>
<!-- Generator: Adobe Illustrator 23.0.0, SVG Export Plug-In . SVG Version: 6.00 Build 0)  -->
<svg version="1.1" id="Layer_1" xmlns="http://www.w3.org/2000/svg" xmlns:xlink="http://www.w3.org/1999/xlink" x="0px" y="0px"
	 viewBox="0 0 201.01 26.1" style="enable-background:new 0 0 201.01 26.1;" xml:space="preserve">
<style type="text/css">
	.st0{fill:#3F5D6E;}
</style>
<g>
	<path class="st0" d="M1.45,0.65L0.66,5.61H0.24l0.78-4.96H1.45z"/>
	<path class="st0" d="M2.57,2.47l-0.5,3.13H1.65l0.5-3.13H2.57z M2.86,0.65L2.72,1.53H2.3l0.14-0.88H2.86z"/>
	<path class="st0" d="M5.7,2.76c0,0-0.32-0.04-0.88-0.04c-0.93,0-1.32,0.74-1.32,1.6c0,0.62,0.33,1,0.94,1c0.58,0,0.9-0.14,0.9-0.14
		l0.1,0.33c0,0-0.36,0.17-1.05,0.17c-0.84,0-1.33-0.58-1.33-1.31c0-1.1,0.6-1.98,1.76-1.98c0.66,0,0.95,0.04,0.95,0.04L5.7,2.76z"/>
	<path class="st0" d="M6.62,4.97l-0.1,0.64H5.98l0.1-0.64H6.62z"/>
	<path class="st0" d="M10.07,5.67c-0.27,0-0.68-0.04-0.68-0.04L9.1,7.43H8.68l0.79-4.96h0.42L9.86,2.64c0,0,0.46-0.26,1.06-0.26
		c0.59,0,1.04,0.29,1.04,1.06C11.97,4.61,11.33,5.67,10.07,5.67z M10.75,2.73c-0.46,0-0.94,0.26-0.94,0.26L9.45,5.27
		c0,0,0.24,0.05,0.67,0.05c0.98,0,1.4-0.9,1.4-1.83C11.52,2.9,11.23,2.73,10.75,2.73z"/>
	<path class="st0" d="M14.88,5.61h-0.42l0.34-2.17c0.1-0.59-0.04-0.68-0.46-0.68c-0.36,0-1.2,0.41-1.2,0.41l-0.38,2.45h-0.42
		l0.78-4.96h0.42L13.2,2.81c0,0,0.79-0.43,1.29-0.43c0.58,0,0.86,0.23,0.74,0.98L14.88,5.61z"/>
	<path class="st0" d="M16.8,2.47l-0.5,3.13h-0.42l0.5-3.13H16.8z M17.09,0.65l-0.14,0.88h-0.42l0.14-0.88H17.09z"/>
	<path class="st0" d="M18.49,0.65l-0.78,4.96h-0.42l0.78-4.96H18.49z"/>
	<path class="st0" d="M19.3,4.97l-0.1,0.64h-0.54l0.1-0.64H19.3z"/>
	<path class="st0" d="M23.14,4c-0.5,0.14-1.02,0.18-1.02,0.18c-0.03,0.76,0.32,1.14,0.94,1.14c0.64,0,0.9-0.14,0.9-0.14l0.1,0.33
		c0,0-0.31,0.17-1.04,0.17c-0.69,0-1.34-0.41-1.34-1.32c0-1.08,0.51-1.98,1.66-1.98c0.66,0,0.98,0.27,0.98,0.69
		C24.33,3.43,24.09,3.73,23.14,4z M23.33,2.7c-0.61,0-1.12,0.46-1.19,1.17c0,0,0.45-0.04,1-0.21c0.62-0.19,0.76-0.39,0.76-0.56
		C23.9,2.84,23.73,2.7,23.33,2.7z"/>
	<path class="st0" d="M25.69,2.47l-0.5,3.13h-0.42l0.5-3.13H25.69z M25.98,0.65l-0.14,0.88h-0.42l0.14-0.88H25.98z"/>
	<path class="st0" d="M28.73,5.61h-0.42l0.06-0.37c0,0-0.48,0.43-1.06,0.43c-0.67,0-1.08-0.42-1.08-1.2c0-1.22,0.62-2.1,1.86-2.1
		c0.39,0,0.71,0.14,0.71,0.14l0.29-1.86h0.42L28.73,5.61z M28.75,2.88c0,0-0.27-0.17-0.71-0.17c-0.94,0-1.38,0.8-1.38,1.73
		c0,0.55,0.22,0.87,0.75,0.87c0.47,0,1.02-0.49,1.02-0.49L28.75,2.88z"/>
	<path class="st0" d="M32.07,6.31c-0.12,0.74-0.59,1.22-1.51,1.22c-0.77,0-1.12-0.18-1.12-0.18l0.1-0.34c0,0,0.44,0.18,1.06,0.18
		c0.67,0,0.98-0.4,1.06-0.87l0.18-1.07c0,0-0.48,0.43-1.06,0.43c-0.67,0-1.08-0.42-1.08-1.2c0-1.22,0.62-2.1,1.86-2.1
		c0.52,0,1.14,0.1,1.14,0.1L32.07,6.31z M32.21,2.77c0,0-0.29-0.06-0.73-0.06c-0.94,0-1.38,0.8-1.38,1.73
		c0,0.55,0.22,0.87,0.75,0.87c0.47,0,1.02-0.49,1.02-0.49L32.21,2.77z"/>
	<path class="st0" d="M33.77,4.97l-0.1,0.64h-0.54l0.1-0.64H33.77z"/>
	<path class="st0" d="M38.69,5.61h-0.42l0.06-0.37c0,0-0.48,0.43-1.06,0.43c-0.67,0-1.08-0.42-1.08-1.2c0-1.22,0.62-2.1,1.86-2.1
		c0.52,0,1.14,0.1,1.14,0.1L38.69,5.61z M38.72,2.77c0,0-0.29-0.06-0.73-0.06c-0.94,0-1.38,0.8-1.38,1.73
		c0,0.55,0.22,0.87,0.75,0.87c0.47,0,1.02-0.49,1.02-0.49L38.72,2.77z"/>
	<path class="st0" d="M42.17,5.61h-0.42l0.34-2.17c0.1-0.59-0.03-0.68-0.45-0.68c-0.36,0-1.21,0.41-1.21,0.41l-0.38,2.45h-0.42
		l0.5-3.13h0.42l-0.06,0.34c0,0,0.79-0.43,1.3-0.43c0.58,0,0.86,0.23,0.74,0.98L42.17,5.61z"/>
	<path class="st0" d="M44.6,4c-0.5,0.14-1.02,0.18-1.02,0.18c-0.03,0.76,0.32,1.14,0.94,1.14c0.64,0,0.9-0.14,0.9-0.14l0.1,0.33
		c0,0-0.31,0.17-1.04,0.17c-0.69,0-1.34-0.41-1.34-1.32c0-1.08,0.51-1.98,1.66-1.98c0.66,0,0.98,0.27,0.98,0.69
		C45.78,3.43,45.55,3.73,44.6,4z M44.79,2.7c-0.61,0-1.12,0.46-1.19,1.17c0,0,0.45-0.04,1-0.21c0.62-0.19,0.76-0.39,0.76-0.56
		C45.36,2.84,45.19,2.7,44.79,2.7z"/>
	<path class="st0" d="M48.15,2.76h-0.23c-0.45,0-0.92,0.4-0.92,0.4l-0.38,2.45h-0.42l0.5-3.13h0.42l-0.06,0.34
		c0,0,0.49-0.43,0.97-0.43c0.07,0,0.16,0.01,0.16,0.01L48.15,2.76z"/>
	<path class="st0" d="M50.81,5.61h-0.53l-0.85-1.54h-0.63l-0.24,1.54h-0.42l0.78-4.96h0.42l-0.49,3.08h0.26
		c0.66,0,1.06-0.26,1.14-0.87l0.06-0.38h0.42l-0.06,0.38c-0.1,0.67-0.45,0.94-0.95,1.04v0.05c0.09,0.02,0.18,0.11,0.24,0.22
		L50.81,5.61z"/>
	<path class="st0" d="M53.76,5.61h-0.42l0.06-0.37c0,0-0.48,0.43-1.06,0.43c-0.67,0-1.08-0.42-1.08-1.2c0-1.22,0.62-2.1,1.86-2.1
		c0.52,0,1.14,0.1,1.14,0.1L53.76,5.61z M53.79,2.77c0,0-0.29-0.06-0.73-0.06c-0.94,0-1.38,0.8-1.38,1.73
		c0,0.55,0.22,0.87,0.75,0.87c0.47,0,1.02-0.49,1.02-0.49L53.79,2.77z"/>
	<path class="st0" d="M57.25,5.61h-0.42l0.34-2.17c0.1-0.59-0.03-0.68-0.45-0.68c-0.36,0-1.21,0.41-1.21,0.41l-0.38,2.45H54.7
		l0.5-3.13h0.42l-0.06,0.34c0,0,0.79-0.43,1.29-0.43c0.58,0,0.86,0.23,0.74,0.98L57.25,5.61z"/>
	<path class="st0" d="M60.75,5.61h-0.42l0.34-2.17c0.1-0.59-0.03-0.68-0.45-0.68c-0.36,0-1.21,0.41-1.21,0.41l-0.38,2.45h-0.42
		l0.5-3.13h0.42l-0.06,0.34c0,0,0.79-0.43,1.29-0.43c0.58,0,0.86,0.23,0.74,0.98L60.75,5.61z"/>
	<path class="st0" d="M63.82,2.47l-0.03,0.34h-1.05l-0.29,1.81c-0.08,0.49,0.03,0.67,0.44,0.67c0.2,0,0.38-0.04,0.38-0.04l0.08,0.35
		c0,0-0.18,0.05-0.58,0.05c-0.5,0-0.86-0.3-0.76-0.98l0.3-1.87h-0.45l0.03-0.34h0.47l0.12-0.77l0.43-0.06L62.8,2.47H63.82z"/>
	<path class="st0" d="M65.41,4c-0.5,0.14-1.02,0.18-1.02,0.18c-0.03,0.76,0.32,1.14,0.94,1.14c0.64,0,0.9-0.14,0.9-0.14l0.1,0.33
		c0,0-0.31,0.17-1.04,0.17c-0.69,0-1.34-0.41-1.34-1.32c0-1.08,0.51-1.98,1.66-1.98c0.66,0,0.98,0.27,0.98,0.69
		C66.6,3.43,66.37,3.73,65.41,4z M65.61,2.7c-0.61,0-1.12,0.46-1.19,1.17c0,0,0.45-0.04,1-0.21c0.62-0.19,0.76-0.39,0.76-0.56
		C66.17,2.84,66.01,2.7,65.61,2.7z"/>
</g>
<g>
	<path class="st0" d="M2.04,10.82h-0.9l-0.28,1.79H0.4l0.72-4.57h1.45c0.87,0,1.25,0.4,1.25,0.98C3.81,10.06,3.13,10.82,2.04,10.82z
		 M2.5,8.38H1.52l-0.33,2.08h0.83c0.88,0,1.3-0.59,1.3-1.4C3.33,8.61,3.08,8.38,2.5,8.38z"/>
	<path class="st0" d="M6.08,9.76c0,0-0.32-0.04-0.92-0.04c-0.31,0-0.58,0.1-0.58,0.46c0,0.62,1.47,0.49,1.47,1.41
		c0,0.73-0.58,1.09-1.26,1.09c-0.66,0-0.96-0.17-0.96-0.17l0.1-0.34c0,0,0.31,0.16,0.86,0.16c0.45,0,0.81-0.22,0.82-0.69
		c0.01-0.7-1.46-0.54-1.46-1.41c0-0.58,0.41-0.86,0.98-0.86c0.66,0,1.02,0.04,1.02,0.04L6.08,9.76z"/>
	<path class="st0" d="M9.71,9.47l-2.36,4.96H6.91l0.89-1.82c-0.4,0-0.54-0.14-0.6-0.42L6.64,9.47H7.1l0.53,2.8h0.34l1.28-2.8H9.71z"
		/>
	<path class="st0" d="M12.48,9.76c0,0-0.32-0.04-0.88-0.04c-0.93,0-1.32,0.74-1.32,1.6c0,0.62,0.33,1,0.94,1
		c0.58,0,0.9-0.14,0.9-0.14l0.1,0.33c0,0-0.36,0.17-1.05,0.17c-0.84,0-1.33-0.58-1.33-1.31c0-1.1,0.6-1.98,1.76-1.98
		c0.66,0,0.95,0.04,0.95,0.04L12.48,9.76z"/>
	<path class="st0" d="M15.29,12.61h-0.42l0.34-2.17c0.1-0.59-0.04-0.68-0.46-0.68c-0.36,0-1.2,0.41-1.2,0.41l-0.38,2.45h-0.42
		l0.78-4.96h0.42l-0.34,2.16c0,0,0.79-0.43,1.29-0.43c0.58,0,0.86,0.23,0.74,0.98L15.29,12.61z"/>
	<path class="st0" d="M17.57,12.67c-0.76,0-1.31-0.51-1.31-1.33c0-1.09,0.6-1.97,1.75-1.97c0.74,0,1.34,0.32,1.34,1.2
		C19.35,11.64,18.73,12.67,17.57,12.67z M17.99,9.72c-0.94,0-1.29,0.81-1.29,1.62c0,0.66,0.36,0.99,0.9,0.99
		c0.91,0,1.3-0.94,1.3-1.72C18.9,9.99,18.58,9.72,17.99,9.72z"/>
	<path class="st0" d="M21.87,9.47l-0.03,0.34h-1.05l-0.29,1.81c-0.08,0.49,0.03,0.67,0.44,0.67c0.2,0,0.38-0.04,0.38-0.04l0.08,0.35
		c0,0-0.18,0.05-0.58,0.05c-0.5,0-0.86-0.3-0.76-0.98l0.3-1.87h-0.45l0.03-0.34h0.47l0.12-0.77l0.43-0.06l-0.13,0.83H21.87z"/>
	<path class="st0" d="M24.54,12.61h-0.42l0.34-2.17c0.1-0.59-0.04-0.68-0.46-0.68c-0.36,0-1.2,0.41-1.2,0.41l-0.38,2.45H22
		l0.78-4.96h0.42l-0.34,2.16c0,0,0.79-0.43,1.3-0.43c0.58,0,0.86,0.23,0.74,0.98L24.54,12.61z"/>
	<path class="st0" d="M26.97,11c-0.5,0.14-1.02,0.18-1.02,0.18c-0.03,0.76,0.32,1.14,0.94,1.14c0.64,0,0.9-0.14,0.9-0.14l0.1,0.33
		c0,0-0.31,0.17-1.04,0.17c-0.69,0-1.34-0.41-1.34-1.32c0-1.08,0.51-1.98,1.66-1.98c0.66,0,0.98,0.27,0.98,0.69
		C28.15,10.43,27.92,10.73,26.97,11z M27.16,9.7c-0.61,0-1.12,0.46-1.19,1.17c0,0,0.45-0.04,1-0.21c0.62-0.19,0.76-0.39,0.76-0.56
		C27.73,9.84,27.56,9.7,27.16,9.7z"/>
	<path class="st0" d="M30.52,9.76h-0.23c-0.45,0-0.92,0.4-0.92,0.4l-0.38,2.45h-0.42l0.5-3.13h0.42l-0.06,0.34
		c0,0,0.49-0.43,0.97-0.43c0.07,0,0.16,0.01,0.16,0.01L30.52,9.76z"/>
	<path class="st0" d="M33.06,12.61h-0.42l0.06-0.37c0,0-0.48,0.43-1.06,0.43c-0.67,0-1.08-0.42-1.08-1.2c0-1.22,0.62-2.1,1.86-2.1
		c0.52,0,1.14,0.1,1.14,0.1L33.06,12.61z M33.09,9.77c0,0-0.29-0.06-0.73-0.06c-0.94,0-1.38,0.8-1.38,1.73
		c0,0.55,0.22,0.87,0.75,0.87c0.47,0,1.02-0.49,1.02-0.49L33.09,9.77z"/>
	<path class="st0" d="M35.08,12.67c-0.27,0-0.68-0.04-0.68-0.04l-0.29,1.8h-0.42l0.79-4.96h0.42l-0.02,0.17c0,0,0.46-0.26,1.06-0.26
		c0.59,0,1.04,0.29,1.04,1.06C36.97,11.61,36.34,12.67,35.08,12.67z M35.76,9.73c-0.46,0-0.94,0.26-0.94,0.26l-0.36,2.28
		c0,0,0.24,0.05,0.67,0.05c0.98,0,1.4-0.9,1.4-1.83C36.53,9.9,36.24,9.73,35.76,9.73z"/>
	<path class="st0" d="M38.8,11c-0.5,0.14-1.02,0.18-1.02,0.18c-0.03,0.76,0.32,1.14,0.94,1.14c0.64,0,0.9-0.14,0.9-0.14l0.1,0.33
		c0,0-0.31,0.17-1.04,0.17c-0.69,0-1.34-0.41-1.34-1.32c0-1.08,0.51-1.98,1.66-1.98c0.66,0,0.98,0.27,0.98,0.69
		C39.98,10.43,39.75,10.73,38.8,11z M38.99,9.7c-0.61,0-1.12,0.46-1.19,1.17c0,0,0.45-0.04,1-0.21c0.62-0.19,0.76-0.39,0.76-0.56
		C39.56,9.84,39.39,9.7,38.99,9.7z"/>
	<path class="st0" d="M43.41,9.47l-0.5,3.13h-0.42l0.06-0.38c0,0-0.78,0.48-1.34,0.48c-0.56,0-0.82-0.31-0.71-0.98l0.36-2.25h0.42
		l-0.34,2.17c-0.09,0.56,0,0.68,0.45,0.68c0.36,0,1.22-0.46,1.22-0.46l0.38-2.39H43.41z"/>
	<path class="st0" d="M46.01,9.47l-0.03,0.34h-1.05l-0.29,1.81c-0.08,0.49,0.03,0.67,0.44,0.67c0.2,0,0.38-0.04,0.38-0.04l0.08,0.35
		c0,0-0.18,0.05-0.58,0.05c-0.5,0-0.86-0.3-0.76-0.98l0.3-1.87h-0.45l0.03-0.34h0.47l0.12-0.77l0.43-0.06l-0.13,0.83H46.01z"/>
	<path class="st0" d="M47.09,9.47l-0.5,3.13h-0.42l0.5-3.13H47.09z M47.38,7.65l-0.14,0.88h-0.42l0.14-0.88H47.38z"/>
	<path class="st0" d="M50.12,12.61H49.7l0.34-2.17c0.1-0.59-0.03-0.68-0.45-0.68c-0.36,0-1.21,0.41-1.21,0.41l-0.38,2.45h-0.42
		l0.5-3.13h0.42l-0.06,0.34c0,0,0.79-0.43,1.29-0.43c0.58,0,0.86,0.23,0.74,0.98L50.12,12.61z"/>
	<path class="st0" d="M56.37,12.61h-0.45l-0.26-1.53h-2.06l-0.75,1.53h-0.48l2.27-4.57h1L56.37,12.61z M55.62,10.72l-0.36-2.34
		h-0.34l-1.16,2.34H55.62z"/>
	<path class="st0" d="M60.04,8.43c0,0-0.64-0.1-1.18-0.1c-0.53,0-0.93,0.14-0.93,0.74c0,0.93,2.03,0.92,2.03,2.17
		c0,0.97-0.72,1.45-1.63,1.45c-1,0-1.51-0.27-1.51-0.27l0.12-0.38c0,0,0.59,0.26,1.42,0.26c0.6,0,1.16-0.29,1.16-0.95
		c0-1.06-2.05-1.04-2.05-2.19c0-0.87,0.62-1.19,1.42-1.19c0.62,0,1.26,0.09,1.26,0.09L60.04,8.43z"/>
	<path class="st0" d="M62.25,10.82h-0.9l-0.28,1.79h-0.46l0.72-4.57h1.45c0.87,0,1.25,0.4,1.25,0.98
		C64.03,10.06,63.35,10.82,62.25,10.82z M62.72,8.38h-0.98l-0.33,2.08h0.83c0.88,0,1.3-0.59,1.3-1.4
		C63.54,8.61,63.29,8.38,62.72,8.38z"/>
</g>
<g>
	<path class="st0" d="M78.08,12.24c0,0-1.09,0.55-3.09,0.55c-2.71,0-5.31-1.56-5.31-5.67c0-3.94,1.54-5.45,4.58-5.45
		c2.07,0,3.73,0.21,3.73,0.21l-0.21,0.89c0,0-1.26-0.19-3.56-0.19c-2.13,0-3.45,1.11-3.45,4.48c0,3.6,2.17,4.79,4.26,4.79
		c1.88,0,2.83-0.45,2.83-0.45L78.08,12.24z"/>
	<path class="st0" d="M85.86,12.6h-0.98V7.47c0-1.39-0.36-1.6-1.34-1.6c-0.85,0-2.69,0.96-2.69,0.96v5.77h-0.98V0.91h0.98V6
		c0,0,1.77-1.02,2.96-1.02c1.38,0,2.05,0.55,2.05,2.32V12.6z"/>
	<path class="st0" d="M91.54,5.89c0,0-0.23,0-0.4,0c-1.06,0-2.04,0.94-2.04,0.94v5.77h-0.98V5.21h0.98V6c0,0,1-1.02,2.13-1.02
		c0.17,0,0.38,0.02,0.38,0.02L91.54,5.89z"/>
	<path class="st0" d="M93.84,2.99h-0.98V0.91h0.98V2.99z M93.84,12.6h-0.98V5.21h0.98V12.6z"/>
	<path class="st0" d="M97.97,12.75c-1.55,0-2.32-0.4-2.32-0.4l0.25-0.79c0,0,0.79,0.38,2.09,0.38c1.11,0,1.7-0.55,1.7-1.41
		c0-1.98-4-1.24-4-3.71c0-1.28,0.9-1.83,2.11-1.83c1.55,0,2.43,0.09,2.43,0.09l-0.17,0.81c0,0-0.77-0.09-2.19-0.09
		c-0.87,0-1.23,0.28-1.23,0.92c0,1.71,4.03,1.09,4.03,3.73C100.68,11.71,99.74,12.75,97.97,12.75z"/>
	<path class="st0" d="M106.15,5.21L106.07,6h-2.36v4.35c0,1.15,0.32,1.47,1.28,1.47c0.47,0,0.89-0.06,0.89-0.06l0.19,0.83
		c0,0-0.4,0.08-1.34,0.08c-1.17,0-2-0.58-2-2.19V6h-1.19l0.08-0.79h1.11V3.4l0.98-0.15v1.96H106.15z"/>
	<path class="st0" d="M108.74,2.99h-0.98V0.91h0.98V2.99z M108.74,12.6h-0.98V5.21h0.98V12.6z"/>
	<path class="st0" d="M117.11,12.6h-0.98V7.47c0-1.39-0.36-1.6-1.34-1.6c-0.85,0-2.69,0.96-2.69,0.96v5.77h-0.98V5.21h0.98V6
		c0,0,1.77-1.02,2.96-1.02c1.38,0,2.05,0.55,2.05,2.32V12.6z"/>
	<path class="st0" d="M125.08,8.75h-5.22c0,2.19,1.13,3.17,2.64,3.17c1.45,0,2.22-0.34,2.22-0.34l0.23,0.77c0,0-0.81,0.4-2.54,0.4
		c-2.07,0-3.6-1.28-3.6-4.22c0-2.37,1.28-3.54,3.24-3.54c2.05,0,3.11,0.98,3.11,2.77C125.15,8.32,125.08,8.75,125.08,8.75z
		 M124.21,8c0.09-1.51-0.6-2.26-2.13-2.26c-1.3,0-2.22,0.83-2.22,2.26H124.21z"/>
	<path class="st0" d="M133.63,12.79c-2.36,0-3.66-0.64-3.66-0.64l0.28-0.89c0,0,1.49,0.62,3.43,0.62c1.58,0,2.43-0.73,2.43-1.9
		c0-2.98-5.73-2.64-5.73-5.88c0-1.7,1.04-2.43,3.05-2.43c1.47,0,2.98,0.21,2.98,0.21l-0.21,0.89c0,0-1.53-0.23-2.81-0.23
		c-1.36,0-1.94,0.32-1.94,1.49c0,2.52,5.65,2.28,5.65,5.82C137.12,11.69,135.95,12.79,133.63,12.79z"/>
	<path class="st0" d="M142.49,5.21L142.41,6h-2.36v4.35c0,1.15,0.32,1.47,1.28,1.47c0.47,0,0.89-0.06,0.89-0.06l0.19,0.83
		c0,0-0.4,0.08-1.34,0.08c-1.17,0-2-0.58-2-2.19V6h-1.19l0.08-0.79h1.11V3.4l0.98-0.15v1.96H142.49z"/>
	<path class="st0" d="M149.72,8.75h-5.22c0,2.19,1.13,3.17,2.64,3.17c1.45,0,2.22-0.34,2.22-0.34l0.23,0.77c0,0-0.81,0.4-2.54,0.4
		c-2.07,0-3.6-1.28-3.6-4.22c0-2.37,1.28-3.54,3.24-3.54c2.05,0,3.11,0.98,3.11,2.77C149.8,8.32,149.72,8.75,149.72,8.75z M148.85,8
		c0.09-1.51-0.6-2.26-2.13-2.26c-1.3,0-2.22,0.83-2.22,2.26H148.85z"/>
	<path class="st0" d="M152.56,2.99h-0.98V0.91h0.98V2.99z M152.56,12.6h-0.98V5.21h0.98V12.6z"/>
	<path class="st0" d="M160.93,12.6h-0.98V7.47c0-1.39-0.36-1.6-1.34-1.6c-0.85,0-2.69,0.96-2.69,0.96v5.77h-0.98V5.21h0.98V6
		c0,0,1.77-1.02,2.96-1.02c1.38,0,2.05,0.55,2.05,2.32V12.6z"/>
	<path class="st0" d="M168.9,8.75h-5.22c0,2.19,1.13,3.17,2.64,3.17c1.45,0,2.22-0.34,2.22-0.34l0.23,0.77c0,0-0.81,0.4-2.54,0.4
		c-2.07,0-3.6-1.28-3.6-4.22c0-2.37,1.28-3.54,3.24-3.54c2.05,0,3.11,0.98,3.11,2.77C168.98,8.32,168.9,8.75,168.9,8.75z M168.03,8
		c0.09-1.51-0.6-2.26-2.13-2.26c-1.3,0-2.22,0.83-2.22,2.26H168.03z"/>
	<path class="st0" d="M174.08,5.89c0,0-0.23,0-0.4,0c-1.06,0-2.04,0.94-2.04,0.94v5.77h-0.98V5.21h0.98V6c0,0,1-1.02,2.13-1.02
		c0.17,0,0.38,0.02,0.38,0.02L174.08,5.89z"/>
</g>
<g>
	<path class="st0" d="M89.46,17.52c0,0-0.8-0.12-1.48-0.12c-0.66,0-1.16,0.17-1.16,0.92c0,1.16,2.54,1.15,2.54,2.71
		c0,1.21-0.9,1.81-2.04,1.81c-1.25,0-1.89-0.34-1.89-0.34l0.15-0.47c0,0,0.74,0.33,1.77,0.33c0.75,0,1.45-0.36,1.45-1.19
		c0-1.32-2.57-1.3-2.57-2.74c0-1.09,0.77-1.49,1.77-1.49c0.78,0,1.57,0.11,1.57,0.11L89.46,17.52z"/>
	<path class="st0" d="M93.87,18.82l-2.95,6.2h-0.55l1.11-2.28c-0.5,0-0.68-0.17-0.75-0.52l-0.7-3.4h0.58l0.66,3.5h0.42l1.6-3.5
		H93.87z"/>
	<path class="st0" d="M96.65,19.18c0,0-0.4-0.05-1.15-0.05c-0.39,0-0.73,0.13-0.73,0.57c0,0.77,1.84,0.61,1.84,1.76
		c0,0.91-0.72,1.36-1.58,1.36c-0.82,0-1.2-0.21-1.2-0.21l0.13-0.42c0,0,0.39,0.2,1.08,0.2c0.56,0,1.01-0.28,1.02-0.86
		c0.01-0.88-1.82-0.68-1.82-1.76c0-0.73,0.51-1.07,1.22-1.07c0.82,0,1.28,0.05,1.28,0.05L96.65,19.18z"/>
	<path class="st0" d="M99.94,18.82l-0.04,0.42h-1.31l-0.36,2.27c-0.1,0.61,0.04,0.84,0.55,0.84c0.25,0,0.48-0.05,0.48-0.05l0.1,0.44
		c0,0-0.22,0.06-0.72,0.06c-0.62,0-1.08-0.37-0.95-1.22l0.37-2.34H97.5l0.04-0.42h0.59l0.15-0.96l0.54-0.08l-0.16,1.04H99.94z"/>
	<path class="st0" d="M101.93,20.73c-0.62,0.17-1.28,0.23-1.28,0.23c-0.04,0.95,0.4,1.42,1.17,1.42c0.8,0,1.13-0.18,1.13-0.18
		l0.12,0.41c0,0-0.39,0.21-1.3,0.21c-0.86,0-1.67-0.51-1.67-1.65c0-1.35,0.64-2.47,2.08-2.47c0.83,0,1.23,0.34,1.23,0.86
		C103.41,20.02,103.12,20.4,101.93,20.73z M102.17,19.1c-0.76,0-1.4,0.57-1.49,1.46c0,0,0.56-0.05,1.25-0.26
		c0.78-0.24,0.95-0.49,0.95-0.7C102.88,19.28,102.67,19.1,102.17,19.1z"/>
	<path class="st0" d="M109.54,22.74h-0.53l0.43-2.72c0.12-0.74,0.01-0.85-0.51-0.85c-0.42,0-1.33,0.44-1.45,0.5
		c-0.01,0.08-0.02,0.17-0.03,0.26L107,22.74h-0.53l0.43-2.72c0.12-0.74,0.01-0.85-0.51-0.85c-0.45,0-1.46,0.51-1.46,0.51l-0.48,3.06
		h-0.53l0.62-3.92h0.53L105,19.24c0,0,0.95-0.54,1.58-0.54c0.52,0,0.83,0.15,0.89,0.58c0.23-0.12,1.1-0.58,1.64-0.58
		c0.73,0,1.03,0.29,0.88,1.23L109.54,22.74z"/>
	<path class="st0" d="M111.95,18.82l-0.62,3.92h-0.53l0.62-3.92H111.95z M112.31,16.55l-0.17,1.1h-0.53l0.17-1.1H112.31z"/>
	<path class="st0" d="M115.18,19.18c0,0-0.4-0.05-1.15-0.05c-0.39,0-0.73,0.13-0.73,0.57c0,0.77,1.84,0.61,1.84,1.76
		c0,0.91-0.72,1.36-1.58,1.36c-0.82,0-1.2-0.21-1.2-0.21l0.13-0.42c0,0,0.39,0.2,1.08,0.2c0.56,0,1.01-0.28,1.02-0.86
		c0.01-0.88-1.82-0.68-1.82-1.76c0-0.73,0.51-1.07,1.22-1.07c0.82,0,1.28,0.05,1.28,0.05L115.18,19.18z"/>
	<path class="st0" d="M119.13,19.18c0,0-0.4-0.05-1.1-0.05c-1.16,0-1.65,0.92-1.65,2c0,0.78,0.41,1.25,1.18,1.25
		c0.72,0,1.12-0.18,1.12-0.18l0.12,0.41c0,0-0.45,0.21-1.31,0.21c-1.05,0-1.66-0.72-1.66-1.64c0-1.37,0.75-2.48,2.2-2.48
		c0.83,0,1.19,0.05,1.19,0.05L119.13,19.18z"/>
	<path class="st0" d="M122.65,22.74h-0.53l0.43-2.72c0.12-0.74-0.05-0.85-0.57-0.85c-0.45,0-1.5,0.51-1.5,0.51L120,22.74h-0.53
		l0.98-6.2h0.53l-0.43,2.7c0,0,0.99-0.54,1.62-0.54c0.73,0,1.08,0.29,0.93,1.23L122.65,22.74z"/>
	<path class="st0" d="M125.68,20.73c-0.62,0.17-1.28,0.23-1.28,0.23c-0.04,0.95,0.4,1.42,1.17,1.42c0.8,0,1.13-0.18,1.13-0.18
		l0.12,0.41c0,0-0.39,0.21-1.3,0.21c-0.86,0-1.67-0.51-1.67-1.65c0-1.35,0.64-2.47,2.08-2.47c0.83,0,1.23,0.34,1.23,0.86
		C127.16,20.02,126.87,20.4,125.68,20.73z M125.92,19.1c-0.76,0-1.4,0.57-1.49,1.46c0,0,0.56-0.05,1.25-0.26
		c0.78-0.24,0.95-0.49,0.95-0.7C126.63,19.28,126.42,19.1,125.92,19.1z"/>
	<path class="st0" d="M134.83,17.03l-0.06,0.45h-2.09l-0.83,5.27h-0.56l0.83-5.27h-2.19l0.06-0.45H134.83z"/>
	<path class="st0" d="M137.76,22.74h-0.53l0.43-2.72c0.12-0.74-0.05-0.85-0.57-0.85c-0.45,0-1.5,0.51-1.5,0.51l-0.48,3.06h-0.53
		l0.98-6.2h0.53l-0.43,2.7c0,0,0.99-0.54,1.62-0.54c0.73,0,1.08,0.29,0.93,1.23L137.76,22.74z"/>
	<path class="st0" d="M140.79,20.73c-0.62,0.17-1.28,0.23-1.28,0.23c-0.04,0.95,0.4,1.42,1.17,1.42c0.8,0,1.13-0.18,1.13-0.18
		l0.12,0.41c0,0-0.39,0.21-1.3,0.21c-0.86,0-1.67-0.51-1.67-1.65c0-1.35,0.64-2.47,2.08-2.47c0.83,0,1.23,0.34,1.23,0.86
		C142.27,20.02,141.98,20.4,140.79,20.73z M141.03,19.1c-0.76,0-1.4,0.57-1.49,1.46c0,0,0.56-0.05,1.25-0.26
		c0.78-0.24,0.95-0.49,0.95-0.7C141.74,19.28,141.53,19.1,141.03,19.1z"/>
	<path class="st0" d="M145.23,19.18h-0.29c-0.56,0-1.15,0.5-1.15,0.5l-0.48,3.06h-0.53l0.62-3.92h0.53l-0.07,0.42
		c0,0,0.61-0.54,1.21-0.54c0.09,0,0.2,0.01,0.2,0.01L145.23,19.18z"/>
	<path class="st0" d="M148.4,22.74h-0.53l0.08-0.46c0,0-0.6,0.54-1.33,0.54c-0.84,0-1.35-0.53-1.35-1.5c0-1.52,0.78-2.62,2.33-2.62
		c0.65,0,1.42,0.12,1.42,0.12L148.4,22.74z M148.44,19.19c0,0-0.36-0.07-0.91-0.07c-1.17,0-1.72,1-1.72,2.16
		c0,0.69,0.28,1.09,0.94,1.09c0.59,0,1.28-0.61,1.28-0.61L148.44,19.19z"/>
	<path class="st0" d="M150.92,22.82c-0.34,0-0.85-0.05-0.85-0.05l-0.36,2.25h-0.53l0.99-6.2h0.52l-0.03,0.21
		c0,0,0.58-0.33,1.33-0.33c0.74,0,1.3,0.36,1.3,1.32C153.29,21.5,152.5,22.82,150.92,22.82z M151.77,19.14
		c-0.58,0-1.18,0.33-1.18,0.33l-0.45,2.85c0,0,0.3,0.06,0.84,0.06c1.23,0,1.75-1.12,1.75-2.29
		C152.73,19.35,152.37,19.14,151.77,19.14z"/>
	<path class="st0" d="M154.95,18.82l-0.62,3.92h-0.53l0.62-3.92H154.95z M155.31,16.55l-0.17,1.1h-0.53l0.17-1.1H155.31z"/>
	<path class="st0" d="M157.39,20.73c-0.62,0.17-1.28,0.23-1.28,0.23c-0.04,0.95,0.4,1.42,1.17,1.42c0.8,0,1.13-0.18,1.13-0.18
		l0.12,0.41c0,0-0.39,0.21-1.3,0.21c-0.86,0-1.67-0.51-1.67-1.65c0-1.35,0.64-2.47,2.08-2.47c0.83,0,1.23,0.34,1.23,0.86
		C158.87,20.02,158.58,20.4,157.39,20.73z M157.63,19.1c-0.76,0-1.4,0.57-1.49,1.46c0,0,0.56-0.05,1.25-0.26
		c0.78-0.24,0.95-0.49,0.95-0.7C158.34,19.28,158.13,19.1,157.63,19.1z"/>
	<path class="st0" d="M167.43,19.31l-0.04,0.42h-1.31l-0.28,1.78c-0.1,0.61,0.04,0.83,0.55,0.83c0.25,0,0.47-0.04,0.47-0.04
		l0.1,0.44c0,0-0.21,0.05-0.71,0.05c-1.05,0-0.95-0.95-0.95-0.95s-0.58,0.98-2.26,0.98c-1.02,0-1.72-0.64-1.72-1.62
		c0-1.23,0.82-1.86,2.01-1.86v-0.06c0,0-0.63-0.31-0.63-1.05c0-0.87,0.6-1.29,1.57-1.29c0.88,0,1.63,0.11,1.63,0.11l-0.11,0.47
		c0,0-0.76-0.12-1.36-0.12c-0.83,0-1.17,0.25-1.17,0.93c0,0.57,0.42,0.98,0.99,0.98h0.19l-0.04,0.42h-0.72
		c-1.05,0-1.77,0.27-1.77,1.44c0,0.74,0.45,1.21,1.22,1.21c1.51,0,2.19-0.97,2.36-2.02l0.1-0.63H165l0.04-0.42h0.59l0.15-0.96
		l0.54-0.08l-0.16,1.04H167.43z"/>
	<path class="st0" d="M171.87,22.74h-2.02l0.9-5.72h1.83c0.87,0,1.27,0.4,1.27,0.99c0,0.67-0.43,1.34-1.08,1.57v0.09
		c0.34,0,1.14,0.16,1.14,1.03C173.91,21.92,173.14,22.74,171.87,22.74z M172.13,19.95h-1.27l-0.37,2.34h1.41
		c0.91,0,1.41-0.64,1.41-1.54C173.31,20.2,172.95,19.95,172.13,19.95z M172.4,17.47h-1.15l-0.32,2.03h1.09
		c0.78,0,1.23-0.67,1.23-1.39C173.25,17.66,172.97,17.47,172.4,17.47z"/>
	<path class="st0" d="M176.33,20.73c-0.62,0.17-1.28,0.23-1.28,0.23c-0.04,0.95,0.4,1.42,1.17,1.42c0.8,0,1.13-0.18,1.13-0.18
		l0.12,0.41c0,0-0.39,0.21-1.3,0.21c-0.86,0-1.67-0.51-1.67-1.65c0-1.35,0.64-2.47,2.08-2.47c0.83,0,1.23,0.34,1.23,0.86
		C177.81,20.02,177.52,20.4,176.33,20.73z M176.57,19.1c-0.76,0-1.4,0.57-1.49,1.46c0,0,0.56-0.05,1.25-0.26
		c0.78-0.24,0.95-0.49,0.95-0.7C177.28,19.28,177.07,19.1,176.57,19.1z"/>
	<path class="st0" d="M180.75,19.18h-0.29c-0.56,0-1.15,0.5-1.15,0.5l-0.48,3.06h-0.53l0.62-3.92h0.53l-0.07,0.42
		c0,0,0.61-0.54,1.21-0.54c0.09,0,0.2,0.01,0.2,0.01L180.75,19.18z"/>
	<path class="st0" d="M183.9,22.74h-0.53l0.08-0.46c0,0-0.6,0.54-1.33,0.54c-0.84,0-1.35-0.53-1.35-1.5c0-1.52,0.78-2.62,2.33-2.62
		c0.65,0,1.42,0.12,1.42,0.12L183.9,22.74z M183.94,19.19c0,0-0.36-0.07-0.91-0.07c-1.17,0-1.72,1-1.72,2.16
		c0,0.69,0.28,1.09,0.94,1.09c0.59,0,1.28-0.61,1.28-0.61L183.94,19.19z"/>
	<path class="st0" d="M187.69,18.82l-0.04,0.42h-1.31l-0.36,2.27c-0.1,0.61,0.04,0.84,0.55,0.84c0.25,0,0.48-0.05,0.48-0.05
		l0.1,0.44c0,0-0.22,0.06-0.72,0.06c-0.62,0-1.08-0.37-0.95-1.22l0.37-2.34h-0.56l0.04-0.42h0.59l0.15-0.96l0.54-0.08l-0.16,1.04
		H187.69z"/>
	<path class="st0" d="M191.6,18.82l-0.62,3.92h-0.53l0.08-0.48c0,0-0.98,0.6-1.67,0.6c-0.7,0-1.02-0.39-0.89-1.23l0.45-2.81h0.53
		l-0.43,2.72c-0.11,0.7,0,0.85,0.56,0.85c0.45,0,1.52-0.58,1.52-0.58l0.47-2.99H191.6z"/>
	<path class="st0" d="M195.38,22.74h-0.53l0.43-2.72c0.12-0.74-0.04-0.85-0.56-0.85c-0.45,0-1.51,0.51-1.51,0.51l-0.48,3.06h-0.53
		l0.62-3.92h0.53l-0.07,0.42c0,0,0.99-0.54,1.62-0.54c0.73,0,1.08,0.29,0.93,1.23L195.38,22.74z"/>
	<path class="st0" d="M199.61,23.62c-0.15,0.93-0.74,1.52-1.89,1.52c-0.96,0-1.4-0.23-1.4-0.23l0.12-0.42c0,0,0.55,0.22,1.32,0.22
		c0.84,0,1.22-0.5,1.32-1.09l0.22-1.34c0,0-0.6,0.54-1.33,0.54c-0.84,0-1.35-0.53-1.35-1.5c0-1.52,0.78-2.62,2.33-2.62
		c0.65,0,1.42,0.12,1.42,0.12L199.61,23.62z M199.79,19.19c0,0-0.36-0.07-0.91-0.07c-1.17,0-1.72,1-1.72,2.16
		c0,0.69,0.28,1.09,0.94,1.09c0.59,0,1.28-0.61,1.28-0.61L199.79,19.19z"/>
</g>
</svg>
